# xmcd CD database file
#
# Track frame offsets:
#	150
#	14599
#	32957
#	49619
#	69129
#	83155
#	99336
#	113313
#	128516
#	143755
#	160781
#	176391
#
# Disc length: 2573 seconds
#
# Revision: 0
# Processed by: cddbd v1.5.1PL2 Copyright (c) Steve Scherf et al.
# Submitted via: CDex 1.51
#
DISCID=860a0b0c
DTITLE=Colors Of The Land - Waterscapes
DYEAR=2005
DGENRE=New Age
TTITLE0=Big River
TTITLE1=Tanglebrook
TTITLE2=My Heart Will Go On (Love Theme From Titanic)
TTITLE3=Tall Ships
TTITLE4=Bonnie Loch Levin
TTITLE5=Diamond Pond
TTITLE6=Summer Swim
TTITLE7=Ice Sculpture
TTITLE8=Water Dance
TTITLE9=Spring Shower Waltz
TTITLE10=Melting Snow
TTITLE11=Colors Of The Land - Cloud Burst
EXTD=YEAR: 2005
EXTT0=
EXTT1=
EXTT2=
EXTT3=
EXTT4=
EXTT5=
EXTT6=
EXTT7=
EXTT8=
EXTT9=
EXTT10=
EXTT11=
PLAYORDER=
